<svg version="1.1" id="amex" xmlns="http://www.w3.org/2000/svg" xmlns:xlink="http://www.w3.org/1999/xlink" x="0" y="0"
	 width="480" height="300" viewBox="0 0 480 300" enable-background="new 0 0 480 300" xml:space="preserve">
<g id="_x35_12">
	<g>
		<g>

				<linearGradient id="SVGID_1_" gradientUnits="userSpaceOnUse" x1="149" y1="403.9922" x2="149" y2="83.4147" gradientTransform="matrix(1 0 0 -1 91 387.5)">
				<stop  offset="0" style="stop-color:#2E77BC"/>
				<stop  offset="0.8772" style="stop-color:#0DA6E0"/>
			</linearGradient>
			<path fill="url(#SVGID_1_)" d="M480,270c0,16.5-13.5,30-30,30H30c-16.5,0-30-13.5-30-30V30C0,13.5,13.5,0,30,0h420
				c16.5,0,30,13.5,30,30V270z"/>
			<g opacity="0.5">
				<path fill="#336699" d="M450,1c15.991,0,29,13.009,29,29v240c0,15.99-13.009,29-29,29H30c-15.991,0-29-13.01-29-29V30
					C1,14.009,14.009,1,30,1H450 M450,0H30C13.5,0,0,13.5,0,30v240c0,16.5,13.5,30,30,30h420c16.5,0,30-13.5,30-30V30
					C480,13.5,466.5,0,450,0L450,0z"/>
			</g>
		</g>
		<path opacity="0.5" fill="#FFFFFF" enable-background="new    " d="M31,2h418c16.5,0,30,13.5,30,30v-1c0-16.5-13.5-30-30-30H31
			C14.5,1,1,14.5,1,31v1C1,15.5,14.5,2,31,2z"/>
		<path opacity="0.5" fill="#FFFFFF" enable-background="new    " d="M449,298H31c-16.5,0-30-13.5-30-30v1c0,16.5,13.5,30,30,30h418
			c16.5,0,30-13.5,30-30v-1C479,284.5,465.5,298,449,298z"/>
	</g>
	<g>
		<path fill="#2E77BC" d="M88.597,119.471l-6.939-17.142l-6.899,17.142 M241.467,112.644c-1.394,0.858-3.041,0.887-5.015,0.887
			h-12.316v-9.55h12.483c1.767,0,3.611,0.08,4.808,0.773c1.314,0.627,2.128,1.962,2.128,3.803
			C243.557,110.436,242.782,111.948,241.467,112.644 M329.33,119.471l-7.016-17.142l-6.978,17.142H329.33z M165.548,138.025h-10.395
			l-0.038-33.679l-14.701,33.679h-8.902l-14.74-33.707v33.707h-20.62l-3.896-9.591h-21.11l-3.935,9.591h-11.01l18.156-43.001h15.062
			l17.244,40.712V95.024h16.547l13.268,29.17l12.188-29.17h16.882V138.025L165.548,138.025z M206.972,138.025h-33.869V95.024h33.869
			v8.956h-23.728v7.749h23.158v8.815h-23.158v8.585h23.728V138.025z M254.727,106.606c0,6.855-4.516,10.397-7.145,11.461
			c2.217,0.856,4.113,2.369,5.016,3.621c1.43,2.139,1.676,4.049,1.676,7.889v8.448h-10.226l-0.037-5.423
			c0-2.587,0.244-6.309-1.602-8.377c-1.482-1.512-3.739-1.84-7.389-1.84h-10.884v15.64h-10.138V95.024h23.32
			c5.181,0,8.999,0.14,12.276,2.06C252.802,99.006,254.727,101.809,254.727,106.606 M270.95,138.025h-10.345v-43h10.345V138.025z
			 M390.963,138.025h-14.367l-19.218-32.274v32.274H336.73l-3.944-9.591h-21.062l-3.828,9.591h-11.861
			c-4.93,0-11.168-1.105-14.703-4.757c-3.562-3.652-5.416-8.596-5.416-16.415c0-6.376,1.107-12.208,5.466-16.813
			c3.278-3.432,8.41-5.016,15.397-5.016h9.814v9.213h-9.609c-3.7,0-5.791,0.56-7.801,2.548c-1.729,1.811-2.916,5.233-2.916,9.741
			c0,4.605,0.903,7.927,2.791,10.097c1.56,1.702,4.396,2.219,7.063,2.219h4.552l14.291-33.817h15.192l17.163,40.671v-40.67h15.437
			l17.822,29.947V95.026h10.384V138.025z M56.084,146.471h17.322l3.906-9.551h8.744l3.896,9.551h34.083v-7.303l3.043,7.333h17.694
			l3.042-7.441v7.412h84.704l-0.04-15.677h1.639c1.147,0.039,1.481,0.146,1.481,2.066v13.61h43.811v-3.65
			c3.532,1.92,9.028,3.65,16.262,3.65H314.1l3.944-9.551h8.746l3.856,9.551h35.517v-9.074l5.378,9.074H400V86.5h-28.166v7.083
			l-3.943-7.083h-28.902v7.083l-3.622-7.083h-39.039c-6.536,0-12.279,0.924-16.919,3.5v-3.5h-26.941V90
			c-2.953-2.654-6.977-3.5-11.449-3.5h-98.425l-6.604,15.489L129.207,86.5H98.205v7.083L94.799,86.5H68.36l-12.278,28.513
			L42,146.471H56.084z"/>
		<path fill="#FFFFFF" d="M88.597,120.471l-6.939-17.142l-6.899,17.142 M241.467,113.644c-1.394,0.858-3.041,0.887-5.015,0.887
			h-12.316v-9.55h12.483c1.767,0,3.611,0.08,4.808,0.773c1.314,0.627,2.128,1.962,2.128,3.803
			C243.557,111.436,242.782,112.948,241.467,113.644 M329.33,120.471l-7.016-17.142l-6.978,17.142H329.33z M165.548,139.025h-10.395
			l-0.038-33.679l-14.701,33.679h-8.902l-14.74-33.707v33.707h-20.62l-3.896-9.591h-21.11l-3.935,9.591h-11.01l18.156-43.001h15.062
			l17.244,40.712V96.024h16.547l13.268,29.17l12.188-29.17h16.882V139.025L165.548,139.025z M206.972,139.025h-33.869V96.024h33.869
			v8.956h-23.728v7.749h23.158v8.815h-23.158v8.585h23.728V139.025z M254.727,107.606c0,6.855-4.516,10.397-7.145,11.461
			c2.217,0.856,4.113,2.369,5.016,3.621c1.43,2.139,1.676,4.049,1.676,7.889v8.448h-10.226l-0.037-5.423
			c0-2.587,0.244-6.309-1.602-8.377c-1.482-1.512-3.739-1.84-7.389-1.84h-10.884v15.64h-10.138V96.024h23.32
			c5.181,0,8.999,0.14,12.276,2.06C252.802,100.006,254.727,102.809,254.727,107.606 M270.95,139.025h-10.345v-43h10.345V139.025z
			 M390.963,139.025h-14.367l-19.218-32.274v32.274H336.73l-3.944-9.591h-21.062l-3.828,9.591h-11.861
			c-4.93,0-11.168-1.105-14.703-4.757c-3.562-3.652-5.416-8.596-5.416-16.415c0-6.376,1.107-12.208,5.466-16.813
			c3.278-3.432,8.41-5.016,15.397-5.016h9.814v9.213h-9.609c-3.7,0-5.791,0.56-7.801,2.548c-1.729,1.811-2.916,5.233-2.916,9.741
			c0,4.605,0.903,7.927,2.791,10.097c1.56,1.702,4.396,2.219,7.063,2.219h4.552l14.291-33.817h15.192l17.163,40.671v-40.67h15.437
			l17.822,29.947V96.026h10.384V139.025z M56.084,147.471h17.322l3.906-9.551h8.744l3.896,9.551h34.083v-7.303l3.043,7.333h17.694
			l3.042-7.441v7.412h84.704l-0.04-15.677h1.639c1.147,0.039,1.481,0.146,1.481,2.066v13.61h43.811v-3.65
			c3.532,1.92,9.028,3.65,16.262,3.65H314.1l3.944-9.551h8.746l3.856,9.551h35.517v-9.074l5.378,9.074H400V87.5h-28.166v7.083
			l-3.943-7.083h-28.902v7.083l-3.622-7.083h-39.039c-6.536,0-12.279,0.924-16.919,3.5v-3.5h-26.941V91
			c-2.953-2.654-6.977-3.5-11.449-3.5h-98.425l-6.604,15.489L129.207,87.5H98.205v7.083L94.799,87.5H68.36l-12.278,28.513
			L42,147.471H56.084z"/>
	</g>
	<g>
		<path fill="#2E77BC" d="M422.742,187.016V159.5h-7.018l0,0h-18.384c-5.665,0-9.78,1.375-12.694,3.51v-3.51h-27.768
			c-4.438,0-9.652,1.114-12.113,3.51v-3.51H295.18v3.51c-3.945-2.882-10.605-3.51-13.677-3.51h-32.705v3.51
			c-3.123-3.061-10.064-3.51-14.297-3.51h-36.604l-8.375,9.18l-7.845-9.18H127v59.971h53.648l8.629-9.322l8.131,9.322l33.069,0.029
			v-14.105h3.253c4.384,0.066,9.559-0.111,14.125-2.108v16.187h27.274v-15.634h1.317c1.679,0,1.845,0.072,1.845,1.771v13.859h82.856
			c5.264,0,10.763-1.363,13.808-3.838v3.838h26.28c5.47,0,10.812-0.777,14.875-2.765v-0.062c5.937-3.83,9.887-10.535,9.887-18.19
			C426,194.246,424.802,190.329,422.742,187.016z M234.178,196.611h-12.654v14.416h-19.717l-12.49-14.227l-12.979,14.227H136.16
			v-42.979h40.796l12.48,14.09l12.902-14.09h32.411c8.05,0,17.095,2.258,17.095,14.16
			C251.842,194.148,243.045,196.611,234.178,196.611z M295.221,194.663c1.432,2.099,1.641,4.058,1.68,7.848v8.519h-10.183v-5.377
			c0-2.584,0.245-6.414-1.64-8.411c-1.483-1.541-3.741-1.908-7.442-1.908h-10.839v15.696h-10.191V168.05h23.418
			c5.133,0,8.873,0.229,12.203,2.03c3.201,1.956,5.215,4.64,5.215,9.542c0,6.86-4.52,10.362-7.188,11.435
			C292.508,191.9,294.355,193.413,295.221,194.663z M336.919,176.939h-23.752v7.812h23.173v8.77h-23.173v8.551l23.752,0.037v8.918
			h-33.854v-42.979h33.854V176.939z M362.75,211.027h-19.754v-9.213h19.677c1.925,0,3.287-0.258,4.144-1.066
			c0.697-0.663,1.199-1.629,1.199-2.801c0-1.254-0.541-2.248-1.238-2.844c-0.775-0.656-1.846-0.955-3.61-0.955
			c-9.487-0.325-21.367,0.299-21.367-13.303c0-6.234,3.868-12.795,14.501-12.795h20.336v9.148h-18.607
			c-1.844,0-3.043,0.068-4.063,0.773c-1.11,0.697-1.521,1.729-1.521,3.094c0,1.623,0.941,2.724,2.218,3.201
			c1.069,0.379,2.219,0.485,3.948,0.485l5.461,0.149c5.504,0.138,9.285,1.102,11.582,3.457c1.975,2.07,3.035,4.682,3.035,9.104
			C378.688,206.713,372.982,211.027,362.75,211.027z M414.951,206.881c-2.665,2.736-6.979,4.146-12.602,4.146h-19.59v-9.213h19.51
			c1.935,0,3.289-0.258,4.104-1.066c0.707-0.663,1.2-1.629,1.2-2.801c0-1.254-0.493-2.246-1.24-2.844
			c-0.734-0.656-1.807-0.955-3.574-0.955c-9.523-0.325-21.406,0.299-21.406-13.303c0-6.234,3.908-12.795,14.556-12.795h19.815v9.146
			h-18.099c-1.845,0-3.071,0.068-4.104,0.773c-1.069,0.697-1.481,1.729-1.481,3.094c0,1.623,0.901,2.725,2.22,3.201
			c1.07,0.379,2.219,0.486,3.907,0.486l5.498,0.148c5.547,0.141,9.251,1.104,11.507,3.461c0.412,0.326,0.658,0.697,0.942,1.062
			c-0.116-0.149-0.228-0.298-0.345-0.444c1.758,2.354,2.812,5.277,2.812,8.457C418.582,201.08,417.197,204.384,414.951,206.881z
			 M171.693,176.939l11.095,12.523l-11.585,12.607h-24.939v-8.549h22.268v-8.771h-22.268v-7.813h25.429V176.939z M195.847,189.613
			l15.573-16.95v34.457L195.847,189.613z M240.951,182.209c0,3.719-2.423,5.676-6.321,5.676h-13.106v-10.945h13.224
			C238.41,176.939,240.951,178.451,240.951,182.209z M286.227,181.581c0,1.841-0.785,3.321-2.101,4.127
			c-1.356,0.813-3.035,0.885-5.007,0.885h-12.322v-9.651h12.487c1.808,0,3.614,0.037,4.842,0.775
			C285.441,178.411,286.227,179.743,286.227,181.581z"/>
		<path fill="#FFFFFF" d="M422.742,188.016V160.5h-7.018l0,0h-18.384c-5.665,0-9.78,1.375-12.694,3.51v-3.51h-27.768
			c-4.438,0-9.652,1.114-12.113,3.51v-3.51H295.18v3.51c-3.945-2.882-10.605-3.51-13.677-3.51h-32.705v3.51
			c-3.123-3.061-10.064-3.51-14.297-3.51h-36.604l-8.375,9.18l-7.845-9.18H127v59.971h53.648l8.629-9.322l8.131,9.322l33.069,0.029
			v-14.105h3.253c4.384,0.066,9.559-0.111,14.125-2.108v16.187h27.274v-15.634h1.317c1.679,0,1.845,0.072,1.845,1.771v13.859h82.856
			c5.264,0,10.763-1.363,13.808-3.838v3.838h26.28c5.47,0,10.812-0.777,14.875-2.765v-0.062c5.937-3.83,9.887-10.535,9.887-18.19
			C426,195.246,424.802,191.329,422.742,188.016z M234.178,197.611h-12.654v14.416h-19.717l-12.49-14.227l-12.979,14.227H136.16
			v-42.979h40.796l12.48,14.09l12.902-14.09h32.411c8.05,0,17.095,2.258,17.095,14.16
			C251.842,195.148,243.045,197.611,234.178,197.611z M295.221,195.663c1.432,2.099,1.641,4.058,1.68,7.848v8.519h-10.183v-5.377
			c0-2.584,0.245-6.414-1.64-8.411c-1.483-1.541-3.741-1.908-7.442-1.908h-10.839v15.696h-10.191V169.05h23.418
			c5.133,0,8.873,0.229,12.203,2.03c3.201,1.956,5.215,4.64,5.215,9.542c0,6.86-4.52,10.362-7.188,11.435
			C292.508,192.9,294.355,194.413,295.221,195.663z M336.919,177.939h-23.752v7.812h23.173v8.77h-23.173v8.551l23.752,0.037v8.918
			h-33.854v-42.979h33.854V177.939z M362.75,212.027h-19.754v-9.213h19.677c1.925,0,3.287-0.258,4.144-1.066
			c0.697-0.663,1.199-1.629,1.199-2.801c0-1.254-0.541-2.248-1.238-2.844c-0.775-0.656-1.846-0.955-3.61-0.955
			c-9.487-0.325-21.367,0.299-21.367-13.303c0-6.234,3.868-12.795,14.501-12.795h20.336v9.148h-18.607
			c-1.844,0-3.043,0.068-4.063,0.773c-1.11,0.697-1.521,1.729-1.521,3.094c0,1.623,0.941,2.724,2.218,3.201
			c1.069,0.379,2.219,0.485,3.948,0.485l5.461,0.149c5.504,0.138,9.285,1.102,11.582,3.457c1.975,2.07,3.035,4.682,3.035,9.104
			C378.688,207.713,372.982,212.027,362.75,212.027z M414.951,207.881c-2.665,2.736-6.979,4.146-12.602,4.146h-19.59v-9.213h19.51
			c1.935,0,3.289-0.258,4.104-1.066c0.707-0.663,1.2-1.629,1.2-2.801c0-1.254-0.493-2.246-1.24-2.844
			c-0.734-0.656-1.807-0.955-3.574-0.955c-9.523-0.325-21.406,0.299-21.406-13.303c0-6.234,3.908-12.795,14.556-12.795h19.815v9.146
			h-18.099c-1.845,0-3.071,0.068-4.104,0.773c-1.069,0.697-1.481,1.729-1.481,3.094c0,1.623,0.901,2.725,2.22,3.201
			c1.07,0.379,2.219,0.486,3.907,0.486l5.498,0.148c5.547,0.141,9.251,1.104,11.507,3.461c0.412,0.326,0.658,0.697,0.942,1.062
			c-0.116-0.149-0.228-0.298-0.345-0.444c1.758,2.354,2.812,5.277,2.812,8.457C418.582,202.08,417.197,205.384,414.951,207.881z
			 M171.693,177.939l11.095,12.523l-11.585,12.607h-24.939v-8.549h22.268v-8.771h-22.268v-7.813h25.429V177.939z M195.847,190.613
			l15.573-16.95v34.457L195.847,190.613z M240.951,183.209c0,3.719-2.423,5.676-6.321,5.676h-13.106v-10.945h13.224
			C238.41,177.939,240.951,179.451,240.951,183.209z M286.227,182.581c0,1.841-0.785,3.321-2.101,4.127
			c-1.356,0.813-3.035,0.885-5.007,0.885h-12.322v-9.651h12.487c1.808,0,3.614,0.037,4.842,0.775
			C285.441,179.411,286.227,180.743,286.227,182.581z"/>
	</g>
</g>
</svg>
