<svg width="23" height="25" viewBox="0 0 23 25" fill="none" xmlns="http://www.w3.org/2000/svg">
<path d="M20.4641 10.9375H19.2856V7.42188C19.2856 3.33008 15.9365 0 11.8213 0C7.70611 0 4.357 3.33008 4.357 7.42188V10.9375H3.17843C1.87709 10.9375 0.821289 11.9873 0.821289 13.2812V22.6562C0.821289 23.9502 1.87709 25 3.17843 25H20.4641C21.7655 25 22.8213 23.9502 22.8213 22.6562V13.2812C22.8213 11.9873 21.7655 10.9375 20.4641 10.9375ZM15.357 10.9375H8.28557V7.42188C8.28557 5.4834 9.87174 3.90625 11.8213 3.90625C13.7708 3.90625 15.357 5.4834 15.357 7.42188V10.9375Z" fill="#626262"/>
</svg>
