<svg width="27" height="20" viewBox="0 0 27 20" fill="none" xmlns="http://www.w3.org/2000/svg">
<path d="M6.84012 5.18284C9.24267 2.91903 13.2354 2.91903 15.638 5.18284C17.7985 7.219 18.1183 10.4646 16.3423 12.8062L16.2948 12.8714C15.8497 13.4537 14.9855 13.5922 14.3675 13.1727C13.7453 12.7533 13.5984 11.9388 14.0435 11.3565L14.091 11.2913C15.0805 9.98412 14.925 8.19636 13.7194 7.06018C12.3625 5.78147 10.1544 5.78147 8.79327 7.06018L3.94496 11.6334C2.58337 12.8795 2.58337 14.9931 3.94496 16.2759C5.14623 17.412 7.04754 17.5586 8.4303 16.6261L8.49944 16.5446C9.12168 16.1618 9.98591 16.2962 10.4267 16.8826C10.8717 17.4691 10.7291 18.2835 10.1069 18.703L10.0378 18.7478C7.51422 20.4215 4.14805 20.1527 1.98791 18.1206C-0.452189 15.8198 -0.452189 12.0895 1.98791 9.79272L6.84012 5.18284ZM19.5875 15.3189C17.146 17.6197 13.1922 17.6197 10.7508 15.3189C8.59018 13.2827 8.30931 10.0737 10.0853 7.73212L10.1328 7.66696C10.539 7.08462 11.4032 6.94616 12.0601 7.36561C12.6823 7.74841 12.8292 8.56287 12.3841 9.18187L12.3366 9.24702C11.3471 10.5176 11.5026 12.342 12.7082 13.4782C14.0651 14.7569 16.2732 14.7569 17.6343 13.4782L22.4826 8.90495C23.8438 7.62216 23.8438 5.50863 22.4826 4.26249C21.2814 3.12753 19.3801 2.9793 17.9973 3.91227L17.9282 3.95707C17.3059 4.37652 16.4417 4.20548 16.0009 3.6549C15.5559 3.0693 15.6985 2.25524 16.3207 1.83701L16.3898 1.7914C18.8745 0.118123 22.2795 0.383598 24.4401 2.41936C26.8816 4.71859 26.8816 8.44885 24.4401 10.7456L19.5875 15.3189Z" fill="#171719"/>
</svg>
