<svg width="32" height="18" viewBox="0 0 32 18" fill="none" xmlns="http://www.w3.org/2000/svg">
<path d="M24.745 0.250547C22.806 0.250547 20.984 1.07578 19.615 2.57477L16 6.52813L12.39 2.57422C11.0195 1.07523 9.198 0.25 7.26 0.25C3.2555 0.250547 0 3.81016 0 8.18516V9.81211C0 14.1888 3.2555 17.7473 7.255 17.7473C9.194 17.7473 11.016 16.922 12.385 15.423L16 11.4773L19.6115 15.4285C20.982 16.9275 22.8035 17.7527 24.7415 17.7527C28.745 17.75 32 14.1898 32 9.81484V8.18789C32 3.81016 28.745 0.250547 24.745 0.250547ZM10.125 12.9539C9.3595 13.7912 8.3405 14.2527 7.256 14.2527C5.02 14.25 3.2 12.2594 3.2 9.81484V8.18789C3.2 5.74227 5.0205 3.75109 7.257 3.75109C8.3415 3.75109 9.36 4.21255 10.126 5.04992L13.7375 9.00109L10.125 12.9539ZM28.8 9.81484C28.8 12.2605 26.9795 14.2516 24.743 14.2516C23.6585 14.2516 22.64 13.7902 21.874 12.9528L18.2625 9.00164L21.874 5.05047C22.6395 4.2132 23.6585 3.75164 24.743 3.75164C26.98 3.75 28.8 5.74063 28.8 8.18516V9.81484Z" fill="#51575A"/>
</svg>
