<svg width="26" height="26" viewBox="0 0 26 26" fill="none" xmlns="http://www.w3.org/2000/svg">
<path d="M13 26C5.81953 26 0 20.1805 0 13C0 5.81953 5.81953 0 13 0C20.1805 0 26 5.81953 26 13C26 20.1805 20.1805 26 13 26ZM11.7812 13C11.7812 13.4062 11.9844 13.7871 12.3246 13.9699L17.1996 17.2199C17.7582 17.6363 18.5148 17.484 18.8449 16.9254C19.2613 16.3668 19.109 15.6102 18.5504 15.2344L14.2188 12.35V6.09375C14.2188 5.41836 13.6754 4.875 12.9543 4.875C12.3246 4.875 11.7355 5.41836 11.7355 6.09375L11.7812 13Z" fill="#51575A"/>
</svg>
