<svg width="15" height="13" viewBox="0 0 15 13" fill="none" xmlns="http://www.w3.org/2000/svg">
<path d="M3.75 11.8137V5.43867C3.75 4.93579 3.33018 4.55357 2.8125 4.55357H0.9375C0.419824 4.55357 0 4.9614 0 5.43867V11.7881C0 12.2909 0.419824 12.6732 0.9375 12.6732H2.8125C3.33105 12.7244 3.75 12.3402 3.75 11.8137ZM15 5.46713C15 4.71295 14.3707 4.10163 13.5938 4.10163H9.30176C9.96885 3.02272 10.3131 1.7998 10.3131 1.36892C10.3125 0.697835 9.77051 0 8.8623 0C7.01279 0 8.09004 2.16722 5.69238 4.02991L5.21484 4.39989C4.86914 4.67026 4.69336 5.06585 4.69043 5.46429C4.68974 5.46495 4.69043 5.46429 4.69043 5.46429L4.6875 10.0179C4.6875 10.4476 4.89589 10.8526 5.25 11.1104L6.2502 11.8387C7.06055 12.4312 8.04785 12.75 9.06152 12.75H10.7812C11.5582 12.75 12.1875 12.139 12.1875 11.3845C12.1875 11.281 12.1734 11.1812 12.151 11.0842C12.7148 10.9058 13.125 10.3992 13.125 9.79018C13.125 9.52983 13.046 9.289 12.9158 9.0821C13.5674 8.96484 14.0625 8.40988 14.0625 7.74392C14.0625 7.38817 13.9192 7.06714 13.6898 6.8241C14.4199 6.77628 15 6.19001 15 5.46713Z" fill="black"/>
</svg>
