<svg width="15" height="11" viewBox="0 0 15 11" fill="none" xmlns="http://www.w3.org/2000/svg">
<path d="M14.6866 1.65023C14.514 1.00066 14.0058 0.489083 13.3604 0.315472C12.1906 0 7.5 0 7.5 0C7.5 0 2.80939 0 1.6396 0.315472C0.994234 0.489111 0.485952 1.00066 0.31344 1.65023C0 2.8276 0 5.28409 0 5.28409C0 5.28409 0 7.74057 0.31344 8.91795C0.485952 9.56751 0.994234 10.0578 1.6396 10.2314C2.80939 10.5469 7.5 10.5469 7.5 10.5469C7.5 10.5469 12.1906 10.5469 13.3604 10.2314C14.0058 10.0578 14.514 9.56751 14.6866 8.91795C15 7.74057 15 5.28409 15 5.28409C15 5.28409 15 2.8276 14.6866 1.65023ZM5.9659 7.51439V3.05378L9.88634 5.28414L5.9659 7.51439Z" fill="black"/>
</svg>
